<svg width="16" height="16" enable-background="new 8.226 10.91 49.755 44.078" version="1.1" viewBox="8.226 10.91 16 16" xml:space="preserve" xmlns="http://www.w3.org/2000/svg"><path d="m10.431 12.376-1.8957 2.3694v0.66351c0 1.8954 3.096 1.8954 3.096 0 0 1.8954 2.9696 1.8954 2.9696 0 0 1.8954 3.096 1.8954 3.096 0 0 1.8954 2.9699 1.8954 2.9699 0 0 1.8954 3.0957 1.8954 3.0957 0v-0.66351l-1.8954-2.3694h-9.0985zm1.1691 4.1702c-0.09488 0.1264-0.18975 0.22097-0.28432 0.31584-0.34736 0.28432-0.78991 0.41072-1.2322 0.41072-0.1264 0-0.2528 0-0.34736-0.03153v8.6248h12.795v-8.6248c-0.1264 0.03153-0.22127 0.03153-0.34767 0.03153-0.44224 0-0.88448-0.1264-1.2322-0.41072-0.09457-0.09488-0.18944-0.18975-0.28401-0.31584-0.09517 0.1264-0.15853 0.22097-0.28462 0.31584-0.34767 0.28432-0.7896 0.41072-1.2006 0.41072-0.44193 0-0.88448-0.1264-1.2006-0.41072-0.09457-0.09488-0.18944-0.18975-0.28432-0.31584-0.09488 0.1264-0.18944 0.22097-0.28432 0.31584-0.41041 0.31584-0.85296 0.44224-1.2952 0.44224s-0.88448-0.1264-1.2322-0.41072c-0.09487-0.09488-0.18944-0.18944-0.28432-0.31584-0.09488 0.1264-0.15792 0.22127-0.28432 0.31584-0.34767 0.28432-0.78991 0.41072-1.2006 0.41072-0.44224 0-0.88448-0.1264-1.2003-0.41072-0.09488-0.09488-0.18944-0.18944-0.28432-0.31584zm1.7059 1.2952c0.72656 0 1.0424 0.18975 1.4216 0.94783h2.8117c0.15823-0.75808 0.47407-0.94783 1.4219-0.94783 0.72625 0 1.9584 0.69504 2.1482 1.6744l0.94783 3.6965c0.18944 0.94783-0.34736 1.6426-1.2952 1.6426-0.66351 0-1.5165-0.44224-2.0848-1.6426h-5.0553c-0.56864 1.2318-1.4216 1.6426-2.0851 1.6426-0.94783 0-1.4849-0.69504-1.2952-1.6426l0.94783-3.6965c0.18944-0.97936 1.4216-1.6744 2.1482-1.6744zm2.8117 1.2952-2.243 2.3694h0.94783v1.2003h2.6222v-1.1685h0.94753z" fill="#828282" stroke-width=".30605"/></svg>
